<svg xmlns="http://www.w3.org/2000/svg" viewBox="0 0 397.4 397.4"><defs><style>      .cls-1 {        fill: #231f20;      }    </style></defs><g><g id="Layer_2"><g id="objects"><path class="cls-1" d="M198.7,0C89,0,0,88.9,0,198.7s89,198.7,198.7,198.7c109.7,0,198.7-88.9,198.7-198.7h0C397.4,88.9,308.4,0,198.7,0ZM257.6,183.3h0s-3.3,26.6-3.3,26.6c-.6,4.4-4.3,7.8-8.8,7.8h-43v111.1c-4.5.4-9.1.6-13.8.6-10.4,0-20.6-1-30.4-3v-108.7h-33.1c-3,0-5.5-2.5-5.5-5.5v-33.3c0-3,2.5-5.5,5.5-5.5h33.1v-49.9c0-30.6,24.7-55.4,55.2-55.4h38.6c3,0,5.5,2.5,5.5,5.5v33.3c0,3-2.5,5.5-5.5,5.5h-27.6c-12.2,0-22.1,9.9-22.1,22.2v38.8h46.4c5.3,0,9.4,4.7,8.8,10Z"></path></g></g></g></svg>